<?xml version="1.0" encoding="UTF-8"?>
<svg width="51px" height="51px" viewBox="0 0 51 51" version="1.1" xmlns="http://www.w3.org/2000/svg" xmlns:xlink="http://www.w3.org/1999/xlink">
    <title>形状结合</title>
    <g id="修改2" stroke="none" stroke-width="1" fill="none" fill-rule="evenodd">
        <g id="切图" transform="translate(-115.000000, -94.000000)" fill="#7A67FF">
            <g id="形状结合-2" transform="translate(115.500000, 94.514955)">
                <g id="编组" transform="translate(0.000000, 1.000000)">
                    <g transform="translate(44.715574, 42.260765)" id="Fill-1">
                        <path d="M2.64238421,0 C1.18333603,0 0,1.18305061 0,2.64238421 C0,4.10143239 1.18333603,5.284483 2.64238421,5.284483 C4.10143239,5.284483 5.284483,4.10143239 5.284483,2.64238421 C5.284483,1.18305061 4.10143239,0 2.64238421,0"></path>
                    </g>
                    <path d="M47.3554466,31.9590348 C46.0422462,31.9590348 44.9776433,33.0233522 44.9776433,34.3368381 C44.9776433,35.6503239 46.0422462,36.7146413 47.3554466,36.7146413 C48.6689325,36.7146413 49.7335353,35.6503239 49.7335353,34.3368381 C49.7335353,33.0233522 48.6689325,31.9590348 47.3554466,31.9590348" id="Fill-3"></path>
                    <path d="M42.9761044,31.1685458 C44.1434571,31.1685458 45.0896122,30.2223907 45.0896122,29.055038 C45.0896122,27.8873998 44.1434571,26.9409594 42.9761044,26.9409594 C41.8087517,26.9409594 40.8625966,27.8873998 40.8625966,29.055038 C40.8625966,30.2223907 41.8087517,31.1685458 42.9761044,31.1685458" id="Fill-5"></path>
                    <path d="M38.5945073,25.6224502 C39.6157269,25.6224502 40.4437196,24.7944574 40.4437196,23.7729525 C40.4437196,22.7514475 39.6157269,21.9234548 38.5945073,21.9234548 C37.5730024,21.9234548 36.7450096,22.7514475 36.7450096,23.7729525 C36.7450096,24.7944574 37.5730024,25.6224502 38.5945073,25.6224502" id="Fill-7"></path>
                    <path d="M42.9761044,20.3428192 C43.9976094,20.3428192 44.8256021,19.5148265 44.8256021,18.4933215 C44.8256021,17.4718166 43.9976094,16.6438238 42.9761044,16.6438238 C41.9548848,16.6438238 41.1266067,17.4718166 41.1266067,18.4933215 C41.1266067,19.5148265 41.9548848,20.3428192 42.9761044,20.3428192" id="Fill-9"></path>
                    <path d="M42.9761044,9.51469523 C43.8514762,9.51469523 44.561592,8.80515028 44.561592,7.92949304 C44.561592,7.05412121 43.8514762,6.34429085 42.9761044,6.34429085 C42.1007325,6.34429085 41.3909022,7.05412121 41.3909022,7.92949304 C41.3909022,8.80515028 42.1007325,9.51469523 42.9761044,9.51469523" id="Fill-11"></path>
                    <path d="M38.5945073,14.7966951 C39.4698792,14.7966951 40.1797095,14.0868647 40.1797095,13.2114929 C40.1797095,12.3358357 39.4698792,11.6262907 38.5945073,11.6262907 C37.7188501,11.6262907 37.0090197,12.3358357 37.0090197,13.2114929 C37.0090197,14.0868647 37.7188501,14.7966951 38.5945073,14.7966951" id="Fill-13"></path>
                    <path d="M33.7624948,9.25059952 C34.4923043,9.25059952 35.0836869,8.65921692 35.0836869,7.92940741 C35.0836869,7.19988332 34.4923043,6.60850073 33.7624948,6.60850073 C33.0326853,6.60850073 32.4413027,7.19988332 32.4413027,7.92940741 C32.4413027,8.65921692 33.0326853,9.25059952 33.7624948,9.25059952" id="Fill-15"></path>
                    <path d="M38.5945073,3.9685711 C39.3240314,3.9685711 39.915414,3.3771885 39.915414,2.64766441 C39.915414,1.9178549 39.3240314,1.32647231 38.5945073,1.32647231 C37.8646978,1.32647231 37.2733152,1.9178549 37.2733152,2.64766441 C37.2733152,3.3771885 37.8646978,3.9685711 38.5945073,3.9685711" id="Fill-17"></path>
                    <path d="M33.7624948,20.0762119 C34.6378666,20.0762119 35.3479824,19.3666669 35.3479824,18.4910097 C35.3479824,17.6153524 34.6378666,16.9058075 33.7624948,16.9058075 C32.887123,16.9058075 32.1772926,17.6153524 32.1772926,18.4910097 C32.1772926,19.3666669 32.887123,20.0762119 33.7624948,20.0762119" id="Fill-19"></path>
                    <path d="M29.3806409,14.5300877 C30.1104504,14.5300877 30.701833,13.9387051 30.701833,13.209181 C30.701833,12.4793715 30.1104504,11.8879889 29.3806409,11.8879889 C28.6511168,11.8879889 28.0597342,12.4793715 28.0597342,13.209181 C28.0597342,13.9387051 28.6511168,14.5300877 29.3806409,14.5300877" id="Fill-21"></path>
                    <path d="M47.3579583,25.8866886 C48.525311,25.8866886 49.4714661,24.9402481 49.4714661,23.7728954 C49.4714661,22.6055427 48.525311,21.6591022 47.3579583,21.6591022 C46.1906056,21.6591022 45.2441651,22.6055427 45.2441651,23.7728954 C45.2441651,24.9402481 46.1906056,25.8866886 47.3579583,25.8866886" id="Fill-23"></path>
                    <path d="M47.3579583,15.0585646 C48.3794633,15.0585646 49.2071706,14.2305719 49.2071706,13.2090669 C49.2071706,12.1875619 48.3794633,11.3595692 47.3579583,11.3595692 C46.3364533,11.3595692 45.5084606,12.1875619 45.5084606,13.2090669 C45.5084606,14.2305719 46.3364533,15.0585646 47.3579583,15.0585646" id="Fill-25"></path>
                    <path d="M47.3579583,4.23058327 C48.2333301,4.23058327 48.9431605,3.52075291 48.9431605,2.64509566 C48.9431605,1.76972384 48.2333301,1.05989347 47.3579583,1.05989347 C46.4825865,1.05989347 45.7724707,1.76972384 45.7724707,2.64509566 C45.7724707,3.52075291 46.4825865,4.23058327 47.3579583,4.23058327" id="Fill-27"></path>
                    <g transform="translate(0.000000, -0.000029)" id="Fill-29">
                        <path d="M2.64209879,5.284483 C4.10114697,5.284483 5.28419758,4.10143239 5.28419758,2.64238421 C5.28419758,1.18305061 4.10114697,0 2.64209879,0 C1.18305061,0 0,1.18305061 0,2.64238421 C0,4.10143239 1.18305061,5.284483 2.64209879,5.284483"></path>
                    </g>
                    <path d="M2.64432504,15.5863279 C3.9578109,15.5863279 5.02212833,14.521725 5.02212833,13.2085246 C5.02212833,11.8950387 3.9578109,10.8304359 2.64432504,10.8304359 C1.33112459,10.8304359 0.266521751,11.8950387 0.266521751,13.2085246 C0.266521751,14.521725 1.33112459,15.5863279 2.64432504,15.5863279" id="Fill-31"></path>
                    <path d="M7.02395271,16.3766742 C5.85631458,16.3766742 4.91015951,17.3231147 4.91015951,18.4904674 C4.91015951,19.6578201 5.85631458,20.6042606 7.02395271,20.6042606 C8.19102,20.6042606 9.13746049,19.6578201 9.13746049,18.4904674 C9.13746049,17.3231147 8.19102,16.3766742 7.02395271,16.3766742" id="Fill-33"></path>
                    <path d="M11.4055497,21.9227698 C10.3843302,21.9227698 9.55605205,22.7507625 9.55605205,23.7722675 C9.55605205,24.7937724 10.3843302,25.6217652 11.4055497,25.6217652 C12.4270547,25.6217652 13.2550474,24.7937724 13.2550474,23.7722675 C13.2550474,22.7507625 12.4270547,21.9227698 11.4055497,21.9227698" id="Fill-35"></path>
                    <path d="M7.02395271,27.2025434 C6.00244773,27.2025434 5.17445501,28.0302507 5.17445501,29.0517557 C5.17445501,30.0735461 6.00244773,30.9012534 7.02395271,30.9012534 C8.04517227,30.9012534 8.87316499,30.0735461 8.87316499,29.0517557 C8.87316499,28.0302507 8.04517227,27.2025434 7.02395271,27.2025434" id="Fill-37"></path>
                    <path d="M7.02395271,38.0305247 C6.14829547,38.0305247 5.4384651,38.7400697 5.4384651,39.6160123 C5.4384651,40.4910987 6.14829547,41.2009291 7.02395271,41.2009291 C7.89932453,41.2009291 8.6091549,40.4910987 8.6091549,39.6160123 C8.6091549,38.7400697 7.89932453,38.0305247 7.02395271,38.0305247" id="Fill-39"></path>
                    <path d="M11.4055497,32.7486675 C10.5301779,32.7486675 9.82034756,33.4582125 9.82034756,34.3338697 C9.82034756,35.209527 10.5301779,35.9190719 11.4055497,35.9190719 C12.2809216,35.9190719 12.9910374,35.209527 12.9910374,34.3338697 C12.9910374,33.4582125 12.2809216,32.7486675 11.4055497,32.7486675" id="Fill-41"></path>
                    <path d="M16.2375623,38.2947631 C15.5077528,38.2947631 14.9163702,38.8861457 14.9163702,39.6159552 C14.9163702,40.3454793 15.5077528,40.9368619 16.2375623,40.9368619 C16.9670864,40.9368619 17.558469,40.3454793 17.558469,39.6159552 C17.558469,38.8861457 16.9670864,38.2947631 16.2375623,38.2947631" id="Fill-43"></path>
                    <path d="M11.4055497,43.5766488 C10.6760257,43.5766488 10.0846431,44.1680314 10.0846431,44.8978409 C10.0846431,45.627365 10.6760257,46.2187476 11.4055497,46.2187476 C12.1353593,46.2187476 12.7267419,45.627365 12.7267419,44.8978409 C12.7267419,44.1680314 12.1353593,43.5766488 11.4055497,43.5766488" id="Fill-45"></path>
                    <path d="M16.2375623,27.4690081 C15.361905,27.4690081 14.6520747,28.178553 14.6520747,29.0544957 C14.6520747,29.9298675 15.361905,30.6394125 16.2375623,30.6394125 C17.1129341,30.6394125 17.8227645,29.9298675 17.8227645,29.0544957 C17.8227645,28.178553 17.1129341,27.4690081 16.2375623,27.4690081" id="Fill-47"></path>
                    <path d="M20.6191308,33.0151322 C19.8893213,33.0151322 19.2979387,33.6065148 19.2979387,34.3363243 C19.2979387,35.0658484 19.8893213,35.657231 20.6191308,35.657231 C21.3489403,35.657231 21.9403229,35.0658484 21.9403229,34.3363243 C21.9403229,33.6065148 21.3489403,33.0151322 20.6191308,33.0151322" id="Fill-49"></path>
                    <path d="M2.64209879,21.6586741 C1.47474608,21.6586741 0.528305592,22.6048291 0.528305592,23.7724673 C0.528305592,24.93982 1.47474608,25.8862605 2.64209879,25.8862605 C3.8094515,25.8862605 4.75560658,24.93982 4.75560658,23.7724673 C4.75560658,22.6048291 3.8094515,21.6586741 2.64209879,21.6586741" id="Fill-51"></path>
                    <path d="M2.64209879,32.4866554 C1.62059381,32.4866554 0.792601096,33.3146481 0.792601096,34.3361531 C0.792601096,35.357658 1.62059381,36.1856508 2.64209879,36.1856508 C3.66360377,36.1856508 4.49131107,35.357658 4.49131107,34.3361531 C4.49131107,33.3146481 3.66360377,32.4866554 2.64209879,32.4866554" id="Fill-53"></path>
                    <path d="M2.64209879,43.3146367 C1.76672697,43.3146367 1.05661118,44.024467 1.05661118,44.9001243 C1.05661118,45.7754961 1.76672697,46.4853265 2.64209879,46.4853265 C3.51747062,46.4853265 4.22730098,45.7754961 4.22730098,44.9001243 C4.22730098,44.024467 3.51747062,43.3146367 2.64209879,43.3146367" id="Fill-55"></path>
                    <path d="M7.02395271,10.3837594 C8.38082185,10.3837594 9.48081631,9.28376489 9.48081631,7.92661033 C9.48081631,6.56945577 8.38082185,5.46946131 7.02395271,5.46946131 C5.66679815,5.46946131 4.56680369,6.56945577 4.56680369,7.92661033 C4.56680369,9.28376489 5.66679815,10.3837594 7.02395271,10.3837594" id="Fill-57"></path>
                    <path d="M11.4055497,10.9361826 C10.1508596,10.9361826 9.1333505,11.9534064 9.1333505,13.2083819 C9.1333505,14.4633574 10.1508596,15.4805811 11.4055497,15.4805811 C12.6605253,15.4805811 13.677749,14.4633574 13.677749,13.2083819 C13.677749,11.9534064 12.6605253,10.9361826 11.4055497,10.9361826" id="Fill-59"></path>
                    <path d="M16.2375623,16.4031323 C15.0844804,16.4031323 14.1503128,17.3375853 14.1503128,18.4903818 C14.1503128,19.6431782 15.0844804,20.5776312 16.2375623,20.5776312 C17.3903588,20.5776312 18.3245263,19.6431782 18.3245263,18.4903818 C18.3245263,17.3375853 17.3903588,16.4031323 16.2375623,16.4031323" id="Fill-61"></path>
                    <path d="M20.6191308,21.8699392 C19.5685133,21.8699392 18.7168311,22.7216215 18.7168311,23.7725243 C18.7168311,24.8231418 19.5685133,25.6745386 20.6191308,25.6745386 C21.6697482,25.6745386 22.5214305,24.8231418 22.5214305,23.7725243 C22.5214305,22.7216215 21.6697482,21.8699392 20.6191308,21.8699392" id="Fill-63"></path>
                    <path d="M25.0010132,27.3343772 C24.0525748,27.3343772 23.2833779,28.1032887 23.2833779,29.0520126 C23.2833779,30.000451 24.0525748,30.7693625 25.0010132,30.7693625 C25.9494516,30.7693625 26.7183632,30.000451 26.7183632,29.0520126 C26.7183632,28.1032887 25.9494516,27.3343772 25.0010132,27.3343772" id="Fill-65"></path>
                    <path d="M29.3850934,32.8038385 C28.5385486,32.8038385 27.8526932,33.4896939 27.8526932,34.3362387 C27.8526932,35.182498 28.5385486,35.8686389 29.3850934,35.8686389 C30.2313528,35.8686389 30.9174936,35.182498 30.9174936,34.3362387 C30.9174936,33.4896939 30.2313528,32.8038385 29.3850934,32.8038385" id="Fill-67"></path>
                    <path d="M33.7644642,38.2682765 C33.0203839,38.2682765 32.4170138,38.8716466 32.4170138,39.6160123 C32.4170138,40.3600926 33.0203839,40.9631773 33.7644642,40.9631773 C34.5085445,40.9631773 35.1122,40.3600926 35.1122,39.6160123 C35.1122,38.8716466 34.5085445,38.2682765 33.7644642,38.2682765" id="Fill-69"></path>
                    <path d="M38.1463181,43.7377378 C37.5041314,43.7377378 36.9838175,44.2577663 36.9838175,44.899953 C36.9838175,45.5418543 37.5041314,46.0627391 38.1463181,46.0627391 C38.7882194,46.0627391 39.3085333,45.5418543 39.3085333,44.899953 C39.3085333,44.2577663 38.7882194,43.7377378 38.1463181,43.7377378" id="Fill-71"></path>
                    <path d="M42.9761044,37.1614606 C41.6189498,37.1614606 40.5189554,38.261455 40.5189554,39.6186096 C40.5189554,40.9757642 41.6189498,42.076044 42.9761044,42.076044 C44.3332589,42.076044 45.4332534,40.9757642 45.4332534,39.6186096 C45.4332534,38.261455 44.3332589,37.1614606 42.9761044,37.1614606" id="Fill-73"></path>
                    <path d="M38.5945073,32.0646673 C37.3395318,32.0646673 36.3220227,33.0816057 36.3220227,34.3368666 C36.3220227,35.5915567 37.3395318,36.6090658 38.5945073,36.6090658 C39.8491974,36.6090658 40.8667066,35.5915567 40.8667066,34.3368666 C40.8667066,33.0816057 39.8491974,32.0646673 38.5945073,32.0646673" id="Fill-75"></path>
                    <path d="M33.7624948,26.9675887 C32.6096983,26.9675887 31.6752453,27.9020417 31.6752453,29.0548382 C31.6752453,30.2076347 32.6096983,31.1420877 33.7624948,31.1420877 C34.9152913,31.1420877 35.8497443,30.2076347 35.8497443,29.0548382 C35.8497443,27.9020417 34.9152913,26.9675887 33.7624948,26.9675887" id="Fill-77"></path>
                    <path d="M29.3806409,21.87051 C28.3300235,21.87051 27.4783412,22.7221923 27.4783412,23.7730952 C27.4783412,24.8237126 28.3300235,25.6753949 29.3806409,25.6753949 C30.4315438,25.6753949 31.2829406,24.8237126 31.2829406,23.7730952 C31.2829406,22.7221923 30.4315438,21.87051 29.3806409,21.87051" id="Fill-79"></path>
                    <path d="M24.9990439,20.2108427 C25.9474823,20.2108427 26.7163938,19.4419312 26.7163938,18.4932074 C26.7163938,17.544769 25.9474823,16.7761428 24.9990439,16.7761428 C24.0506055,16.7761428 23.2814085,17.544769 23.2814085,18.4932074 C23.2814085,19.4419312 24.0506055,20.2108427 24.9990439,20.2108427" id="Fill-81"></path>
                    <path d="M20.6149637,14.7415241 C21.4612231,14.7415241 22.1473639,14.0553833 22.1473639,13.209124 C22.1473639,12.3628646 21.4612231,11.6764384 20.6149637,11.6764384 C19.7684189,11.6764384 19.0825635,12.3628646 19.0825635,13.209124 C19.0825635,14.0553833 19.7684189,14.7415241 20.6149637,14.7415241" id="Fill-83"></path>
                    <path d="M16.2355929,9.27694344 C16.9796732,9.27694344 17.5830433,8.67385878 17.5830433,7.92949304 C17.5830433,7.1851273 16.9796732,6.58204263 16.2355929,6.58204263 C15.4915126,6.58204263 14.8878571,7.1851273 14.8878571,7.92949304 C14.8878571,8.67385878 15.4915126,9.27694344 16.2355929,9.27694344" id="Fill-85"></path>
                    <path d="M11.853739,3.80773901 C12.4959257,3.80773901 13.0162396,3.28742507 13.0162396,2.64523837 C13.0162396,2.00305167 12.4959257,1.48273774 11.853739,1.48273774 C11.2118377,1.48273774 10.6912383,2.00305167 10.6912383,2.64523837 C10.6912383,3.28742507 11.2118377,3.80773901 11.853739,3.80773901" id="Fill-87"></path>
                </g>
            </g>
        </g>
    </g>
</svg>